<svg xmlns="http://www.w3.org/2000/svg" width="34" height="49" viewBox="0 0 34 49" fill="none">
<g clip-path="url(#clip0_274_3144)">
<path d="M13.6 2.86152L15.0167 0.823047C15.3708 0.30625 15.9375 0 16.5307 0C17.5667 0 18.4167 0.91875 18.4167 2.03848V4.16309C18.4167 5.4168 18.8948 6.62266 19.7359 7.48398L27.2354 15.2168C31.5562 19.6766 34 25.859 34 32.3189C34 41.5352 27.0938 49 18.5672 49H17C7.61458 49 0 40.7695 0 30.625V30.2613C0 25.591 1.71771 21.1121 4.7724 17.8104L5.08229 17.4754C5.45417 17.0734 5.96771 16.8438 6.49896 16.8438C7.60573 16.8438 8.5 17.8104 8.5 19.0066V27.5625C8.5 30.9408 11.0411 33.6875 14.1667 33.6875C17.2922 33.6875 19.8333 30.9408 19.8333 27.5625V27.1893C19.8333 25.4666 19.1958 23.8109 18.0714 22.5955L14.6536 18.9014C12.5286 16.6045 11.3333 13.475 11.3333 10.2211C11.3333 7.57012 12.1302 4.97656 13.6 2.86152Z" fill="url(#paint0_linear_274_3144)"/>
</g>
<defs>
<linearGradient id="paint0_linear_274_3144" x1="17" y1="0" x2="17" y2="49" gradientUnits="userSpaceOnUse">
<stop stop-color="#4B99DA"/>
<stop offset="1" stop-color="#0A1438"/>
</linearGradient>
<clipPath id="clip0_274_3144">
<rect width="34" height="49" fill="white"/>
</clipPath>
</defs>
</svg>