<svg xmlns="http://www.w3.org/2000/svg" width="14" height="14" viewBox="0 0 14 14" fill="none">
  <path d="M6.41663 9.91669H7.58329V6.41669H6.41663V9.91669ZM6.99996 5.25002C7.16524 5.25002 7.30388 5.19402 7.41588 5.08202C7.52788 4.97002 7.58368 4.83158 7.58329 4.66669C7.58329 4.50141 7.52729 4.36296 7.41529 4.25135C7.30329 4.13974 7.16485 4.08374 6.99996 4.08335C6.83468 4.08335 6.69624 4.13935 6.58463 4.25135C6.47301 4.36335 6.41701 4.5018 6.41663 4.66669C6.41663 4.83196 6.47263 4.9706 6.58463 5.0826C6.69663 5.1946 6.83507 5.25041 6.99996 5.25002ZM6.99996 12.8334C6.19301 12.8334 5.43468 12.6801 4.72496 12.3737C4.01524 12.0672 3.39788 11.6517 2.87288 11.1271C2.34788 10.6021 1.93235 9.98474 1.62629 9.27502C1.32024 8.5653 1.16701 7.80696 1.16663 7.00002C1.16663 6.19308 1.31985 5.43474 1.62629 4.72502C1.93274 4.0153 2.34826 3.39794 2.87288 2.87294C3.39788 2.34794 4.01524 1.93241 4.72496 1.62635C5.43468 1.3203 6.19301 1.16708 6.99996 1.16669C7.8069 1.16669 8.56524 1.31991 9.27496 1.62635C9.98468 1.9328 10.602 2.34833 11.127 2.87294C11.652 3.39794 12.0678 4.0153 12.3742 4.72502C12.6807 5.43474 12.8337 6.19308 12.8333 7.00002C12.8333 7.80696 12.6801 8.5653 12.3736 9.27502C12.0672 9.98474 11.6517 10.6021 11.127 11.1271C10.602 11.6521 9.98468 12.0678 9.27496 12.3743C8.56524 12.6807 7.8069 12.8337 6.99996 12.8334ZM6.99996 11.6667C8.30274 11.6667 9.40621 11.2146 10.3104 10.3104C11.2145 9.40627 11.6666 8.3028 11.6666 7.00002C11.6666 5.69724 11.2145 4.59377 10.3104 3.6896C9.40621 2.78544 8.30274 2.33335 6.99996 2.33335C5.69718 2.33335 4.59371 2.78544 3.68954 3.6896C2.78538 4.59377 2.33329 5.69724 2.33329 7.00002C2.33329 8.3028 2.78538 9.40627 3.68954 10.3104C4.59371 11.2146 5.69718 11.6667 6.99996 11.6667Z" fill="#0A3A62"/>
</svg>