<svg xmlns="http://www.w3.org/2000/svg" width="35" height="36" viewBox="0 0 35 36" fill="none">
<path d="M17.5001 29.9C10.9201 29.9 5.60007 24.58 5.60007 18C5.60007 11.42 10.9201 6.09998 17.5001 6.09998C24.0801 6.09998 29.4001 11.42 29.4001 18C29.4001 24.58 24.0801 29.9 17.5001 29.9ZM17.5001 7.49998C11.6901 7.49998 7.00007 12.19 7.00007 18C7.00007 23.81 11.6901 28.5 17.5001 28.5C23.3101 28.5 28.0001 23.81 28.0001 18C28.0001 12.19 23.3101 7.49998 17.5001 7.49998Z" fill="#1574C3"/>
<path d="M17.2901 24.79L16.3101 23.81L22.1201 18L16.3101 12.19L17.2901 11.21L24.0801 18L17.2901 24.79Z" fill="#1574C3"/>
<path d="M11.2001 17.3H23.1001V18.7H11.2001V17.3Z" fill="#1574C3"/>
</svg>