<svg width="10" height="10" viewBox="0 0 10 10" fill="none" xmlns="http://www.w3.org/2000/svg">
<g clip-path="url(#clip0_274_3146)">
<path d="M9.16671 3.40084V3.43126C9.16671 3.78959 9.16671 3.96917 9.08046 4.11584C8.99421 4.26251 8.83712 4.34959 8.52379 4.52417L8.19337 4.70751C8.42087 3.93751 8.49712 3.11001 8.52504 2.40251L8.52921 2.31042L8.53004 2.28876C8.80129 2.38292 8.95379 2.45334 9.04879 2.58501C9.16671 2.74876 9.16671 2.96626 9.16671 3.40084ZM0.833374 3.40084V3.43126C0.833374 3.78959 0.833374 3.96917 0.919624 4.11584C1.00587 4.26251 1.16296 4.34959 1.47629 4.52417L1.80712 4.70751C1.57921 3.93751 1.50296 3.11001 1.47504 2.40251L1.47087 2.31042L1.47046 2.28876C1.19879 2.38292 1.04629 2.45334 0.951291 2.58501C0.833374 2.74876 0.833374 2.96667 0.833374 3.40084Z" fill="#C8CB43"/>
<path fill-rule="evenodd" clip-rule="evenodd" d="M6.82374 0.977933C6.2209 0.87913 5.61087 0.830768 4.99999 0.83335C4.25708 0.83335 3.64458 0.898767 3.17624 0.977933C2.70166 1.05793 2.46458 1.09793 2.26624 1.3421C2.06833 1.58627 2.07874 1.85002 2.09958 2.37752C2.17166 4.18918 2.56249 6.45252 4.68749 6.65252V8.12502H4.09166C3.99537 8.12508 3.90207 8.15848 3.82763 8.21955C3.75319 8.28063 3.7022 8.3656 3.68333 8.46002L3.60416 8.85418H2.49999C2.41711 8.85418 2.33763 8.88711 2.27902 8.94571C2.22042 9.00432 2.18749 9.0838 2.18749 9.16668C2.18749 9.24956 2.22042 9.32905 2.27902 9.38766C2.33763 9.44626 2.41711 9.47918 2.49999 9.47918H7.49999C7.58287 9.47918 7.66236 9.44626 7.72096 9.38766C7.77957 9.32905 7.81249 9.24956 7.81249 9.16668C7.81249 9.0838 7.77957 9.00432 7.72096 8.94571C7.66236 8.88711 7.58287 8.85418 7.49999 8.85418H6.39583L6.31666 8.46002C6.29779 8.3656 6.24679 8.28063 6.17235 8.21955C6.09791 8.15848 6.00461 8.12508 5.90833 8.12502H5.31249V6.65252C7.43749 6.45252 7.82874 4.1896 7.90041 2.37752C7.92124 1.85002 7.93208 1.58585 7.73374 1.3421C7.53541 1.09793 7.29833 1.05793 6.82374 0.977933Z" fill="#C8CB43"/>
</g>
<defs>
<clipPath id="clip0_274_3146">
<rect width="10" height="10" fill="white"/>
</clipPath>
</defs>
</svg>
