<svg width="6" height="18" viewBox="0 0 6 18" fill="none" xmlns="http://www.w3.org/2000/svg">
<path d="M2.8642 5.01751L0.872953 7.10739C0.839711 7.14226 0.821167 7.18859 0.821167 7.23676C0.821167 7.28494 0.839711 7.33127 0.872953 7.36614L0.875203 7.36839C0.891318 7.38535 0.910715 7.39886 0.932215 7.40809C0.953715 7.41732 0.976868 7.42208 1.00027 7.42208C1.02366 7.42208 1.04682 7.41732 1.06832 7.40809C1.08982 7.39886 1.10921 7.38535 1.12533 7.36839L3.00033 5.40039L4.87458 7.36839C4.89069 7.38535 4.91009 7.39886 4.93159 7.40809C4.95309 7.41732 4.97624 7.42208 4.99964 7.42208C5.02304 7.42208 5.04619 7.41732 5.06769 7.40809C5.08919 7.39886 5.10859 7.38535 5.1247 7.36839L5.12695 7.36614C5.16019 7.33127 5.17874 7.28494 5.17874 7.23676C5.17874 7.18859 5.16019 7.14226 5.12695 7.10739L3.1357 5.01751C3.11819 4.99913 3.09713 4.9845 3.0738 4.9745C3.05046 4.96451 3.02534 4.95935 2.99995 4.95935C2.97457 4.95935 2.94944 4.96451 2.92611 4.9745C2.90278 4.9845 2.88171 4.99913 2.8642 5.01751Z" fill="#B1B1B1"/>
<path d="M3.1358 12.9825L5.12705 10.8926C5.16029 10.8577 5.17883 10.8114 5.17883 10.7632C5.17883 10.7151 5.16029 10.6687 5.12705 10.6339L5.1248 10.6316C5.10868 10.6146 5.08929 10.6011 5.06779 10.5919C5.04629 10.5827 5.02313 10.5779 4.99973 10.5779C4.97634 10.5779 4.95318 10.5827 4.93168 10.5919C4.91018 10.6011 4.89079 10.6146 4.87467 10.6316L2.99967 12.5996L1.12542 10.6316C1.10931 10.6146 1.08991 10.6011 1.06841 10.5919C1.04691 10.5827 1.02376 10.5779 1.00036 10.5779C0.976963 10.5779 0.95381 10.5827 0.93231 10.5919C0.91081 10.6011 0.891413 10.6146 0.875298 10.6316L0.873048 10.6339C0.839806 10.6687 0.821262 10.7151 0.821262 10.7632C0.821262 10.8114 0.839806 10.8577 0.873048 10.8926L2.8643 12.9825C2.88181 13.0009 2.90287 13.0155 2.9262 13.0255C2.94954 13.0355 2.97466 13.0406 3.00005 13.0406C3.02543 13.0406 3.05056 13.0355 3.07389 13.0255C3.09722 13.0155 3.11829 13.0009 3.1358 12.9825Z" fill="#B1B1B1"/>
</svg>
