<svg width="24" height="23" viewBox="0 0 24 23" fill="none" xmlns="http://www.w3.org/2000/svg">
<path d="M9 7.66667L15 15.3333M15 7.66667L9 15.3333M12 20.125C14.3869 20.125 16.6761 19.2163 18.364 17.5988C20.0518 15.9813 21 13.7875 21 11.5C21 9.21251 20.0518 7.0187 18.364 5.4012C16.6761 3.7837 14.3869 2.875 12 2.875C9.61305 2.875 7.32387 3.7837 5.63604 5.4012C3.94821 7.0187 3 9.21251 3 11.5C3 13.7875 3.94821 15.9813 5.63604 17.5988C7.32387 19.2163 9.61305 20.125 12 20.125Z" stroke="#A7A7A7" stroke-width="2" stroke-linecap="round" stroke-linejoin="round"/>
</svg>
